<svg id="Layer_1" data-name="Layer 1" xmlns="http://www.w3.org/2000/svg" viewBox="0 0 802.01 255.81"><defs><style>.cls-1{fill:#353535;}.cls-2{fill:#fbfbe3;}.cls-3{fill:#fefbea;}</style></defs><path class="cls-1" d="M94,205.56q-16.76,0-29.43-8t-19.75-23q-7.07-15-7.06-35.18,0-20.65,7.06-35.31A54.3,54.3,0,0,1,64.52,81.32q12.69-8.1,29.43-8.1t28.9,8.24a40,40,0,0,1,16.35,22.1h-2.88V30.32q0-6.54,3.4-9.94T149.4,17q6.27,0,9.8,3.4t3.54,9.94V191.7q0,6.28-3.4,9.81T149.66,205q-6.28,0-9.68-3.53t-3.4-9.81v-23l2.88,5.75a41.08,41.08,0,0,1-16.35,22.62Q110.95,205.57,94,205.56Zm6.8-20.4a34,34,0,0,0,18.83-5.23q8.1-5.22,12.68-15.43t4.58-25.11q0-22.48-9.94-34T100.75,93.88A35.1,35.1,0,0,0,81.65,99q-8.12,5.1-12.68,15.3t-4.58,25.11q0,22.23,9.94,34T100.75,185.16Z" transform="translate(-37.71 -16.96)"/><path class="cls-1" d="M213,47.06q-7.84,0-12.16-3.92t-4.32-11q0-7.32,4.32-11.11T213,17.24q7.85,0,12.16,3.8t4.32,11.11q0,7.07-4.32,11T213,47.06Zm0,157.72q-6.27,0-9.68-3.79t-3.4-10.6v-102c0-4.54,1.14-8,3.4-10.47s5.5-3.66,9.68-3.66,7.46,1.22,9.81,3.66,3.53,5.93,3.53,10.47v102q0,6.81-3.4,10.6T213,204.78Z" transform="translate(-37.71 -16.96)"/><path class="cls-1" d="M403.1,205q-6.27,0-9.67-3.53T390,191.7V30.32q0-6.54,3.4-9.94T403.1,17q6.28,0,9.81,3.4t3.53,9.94v72.45h-3.66q5.76-14.64,18.05-22.1t28.25-7.45q15.17,0,25.24,5.62a34.77,34.77,0,0,1,15,17q5,11.39,5,28.64V191.7q0,6.28-3.4,9.81T491.25,205q-6.54,0-9.94-3.53t-3.4-9.81V126.05q0-16.47-6.41-24.06t-20-7.59q-16,0-25.5,9.94T416.44,131V191.7Q416.44,205.05,403.1,205Z" transform="translate(-37.71 -16.96)"/><path class="cls-1" d="M581.49,205.56a53.33,53.33,0,0,1-23.94-5.23,41.93,41.93,0,0,1-16.61-14.12,35.11,35.11,0,0,1-6-20.14q0-14.13,7.19-22.36t23.8-11.77q16.62-3.54,44.86-3.53h12.29v16.21H611q-18.82,0-29.82,1.83t-15.56,6.15q-4.57,4.32-4.58,11.9,0,9.94,6.8,16.09t18.84,6.14a31.43,31.43,0,0,0,17-4.57,33.32,33.32,0,0,0,11.64-12.43,36.81,36.81,0,0,0,4.31-18V121.6q0-14.89-6.27-21.44t-20.67-6.54a77.23,77.23,0,0,0-17.39,2.09,81.63,81.63,0,0,0-18.7,7.06c-3,1.4-5.5,1.83-7.59,1.31a8.18,8.18,0,0,1-5-3.53,11.49,11.49,0,0,1-2-6,12.3,12.3,0,0,1,1.57-6.41,10.47,10.47,0,0,1,5.89-4.7,100.83,100.83,0,0,1,22.75-7.85,103.59,103.59,0,0,1,21.19-2.35q17.52,0,28.9,5.49a35.3,35.3,0,0,1,16.87,16.74q5.49,11.25,5.49,29V191.7q0,6.28-3.14,9.81T632.49,205a12.07,12.07,0,0,1-9.15-3.53q-3.4-3.52-3.4-9.81v-17h2.35a39,39,0,0,1-7.72,16.61,36.63,36.63,0,0,1-14,10.59A47.24,47.24,0,0,1,581.49,205.56Z" transform="translate(-37.71 -16.96)"/><path d="M641.39,102.91c-.15.6-.28,1.2-.42,1.8s-.24,1.11-.38,1.67a8.81,8.81,0,0,1-.82,2,18.92,18.92,0,0,1,1,3.71c.75,4.85,2.06,9.57,3.14,14.33.15.42.29.84.43,1.26l.45.79c.73-8.55,3.61-15.45,8.69-20.68q8.89-9.15,25.9-10.72l5-.52q6-.52,8.89-3.8c1.92-2.17,2.7-5.1,2.35-8.76q-.26-5.49-3-8.11a9.6,9.6,0,0,0-7.46-2.35Q667.59,74.87,656.34,83c-5.58,4-13.89,18.08-14,18.34" transform="translate(-37.71 -16.96)"/><path class="cls-1" d="M775.42,206.34q-20.92,0-36-8a56.21,56.21,0,0,1-23.28-22.75q-8.25-14.78-8.24-35.18,0-19.87,8.1-34.79a59.56,59.56,0,0,1,22.24-23.28Q752.4,74,770.45,74a61.88,61.88,0,0,1,23.8,4.32,49.18,49.18,0,0,1,17.92,12.55,54.23,54.23,0,0,1,11.25,20,86.22,86.22,0,0,1,3.79,26.42c0,3-.88,5.19-2.62,6.67s-4.36,2.22-7.84,2.22H728.86V130h80.56L805,133.63q0-13.08-3.8-22.23a29.66,29.66,0,0,0-11.24-14q-7.46-4.83-18.44-4.84-12.3,0-20.8,5.76a36.24,36.24,0,0,0-13,16q-4.44,10.2-4.44,23.8v1.57q0,23,10.85,34.66t31.52,11.64a71.32,71.32,0,0,0,16.61-2.09,54.76,54.76,0,0,0,16.61-7.06q4.44-2.61,8-2.36a9.09,9.09,0,0,1,5.75,2.36,9,9,0,0,1,2.75,5.23,10.53,10.53,0,0,1-1,6.41,15.1,15.1,0,0,1-5.49,5.88,65.42,65.42,0,0,1-20.66,9A91.66,91.66,0,0,1,775.42,206.34Z" transform="translate(-37.71 -16.96)"/><path class="cls-2" d="M106.45,205.54q-16.74,0-29.42-8t-19.75-23q-7.06-15-7.06-35.18,0-20.66,7.06-35.31A54.3,54.3,0,0,1,77,81.3q12.68-8.1,29.42-8.1t28.91,8.24a39.92,39.92,0,0,1,16.34,22.1h-2.87V30.3q0-6.54,3.4-9.94t9.68-3.4q6.27,0,9.8,3.4t3.53,9.94V191.68q0,6.28-3.4,9.81T162.17,205q-6.28,0-9.68-3.53t-3.4-9.81v-23l2.88,5.75A41.13,41.13,0,0,1,135.62,197Q123.46,205.55,106.45,205.54Zm6.8-20.4a34,34,0,0,0,18.84-5.23q8.1-5.22,12.68-15.43t4.58-25.11q0-22.49-9.94-34T113.25,93.86A35.09,35.09,0,0,0,94.16,99q-8.11,5.1-12.69,15.3T76.9,139.37q0,22.23,9.94,34T113.25,185.14Z" transform="translate(-37.71 -16.96)"/><path class="cls-2" d="M225.46,47q-7.85,0-12.16-3.92t-4.32-11q0-7.32,4.32-11.12t12.16-3.79q7.84,0,12.16,3.79t4.32,11.12q0,7.07-4.32,11T225.46,47Zm0,157.72q-6.27,0-9.68-3.79t-3.4-10.6v-102c0-4.54,1.14-8,3.4-10.47s5.5-3.66,9.68-3.66,7.46,1.22,9.81,3.66,3.53,5.93,3.53,10.47v102q0,6.81-3.4,10.6T225.46,204.76Z" transform="translate(-37.71 -16.96)"/><path class="cls-2" d="M415.61,205q-6.27,0-9.67-3.53t-3.41-9.81V30.3q0-6.54,3.41-9.94t9.67-3.4q6.28,0,9.81,3.4T429,30.3v72.45h-3.66q5.74-14.64,18-22.1t28.25-7.45q15.17,0,25.24,5.62a34.77,34.77,0,0,1,15,17q5,11.39,5,28.64v67.22q0,6.28-3.4,9.81T503.76,205q-6.54,0-9.94-3.53t-3.4-9.81V126q0-16.47-6.41-24.06t-20-7.59q-16,0-25.5,9.94T429,131v60.68Q429,205,415.61,205Z" transform="translate(-37.71 -16.96)"/><path class="cls-2" d="M594,205.54a53.3,53.3,0,0,1-23.94-5.23,41.93,41.93,0,0,1-16.61-14.12,35.11,35.11,0,0,1-6-20.14q0-14.13,7.19-22.36t23.8-11.77q16.61-3.54,44.86-3.53h12.29V144.6h-12q-18.82,0-29.82,1.83t-15.56,6.15q-4.57,4.32-4.58,11.9,0,9.95,6.8,16.09t18.84,6.14a31.43,31.43,0,0,0,17-4.57,33.32,33.32,0,0,0,11.64-12.43,36.92,36.92,0,0,0,4.31-18.05V121.58q0-14.91-6.27-21.44T605.24,93.6a77.16,77.16,0,0,0-17.39,2.09,81.63,81.63,0,0,0-18.7,7.06c-3,1.4-5.5,1.83-7.59,1.31a8.18,8.18,0,0,1-5-3.53,11.49,11.49,0,0,1-2-6,12.18,12.18,0,0,1,1.57-6.41,10.48,10.48,0,0,1,5.88-4.7,100.58,100.58,0,0,1,22.76-7.85A103.59,103.59,0,0,1,606,73.2q17.52,0,28.9,5.49A35.34,35.34,0,0,1,651.8,95.43q5.49,11.25,5.49,29v67.22q0,6.28-3.14,9.81T645,205a12.07,12.07,0,0,1-9.15-3.53q-3.4-3.53-3.41-9.81v-17h2.36a39,39,0,0,1-7.72,16.61,36.63,36.63,0,0,1-14,10.59A47.24,47.24,0,0,1,594,205.54Z" transform="translate(-37.71 -16.96)"/><path class="cls-2" d="M653.9,102.89c-.15.6-.28,1.2-.42,1.8s-.24,1.11-.38,1.67a8.81,8.81,0,0,1-.82,2,18.92,18.92,0,0,1,1,3.71c.75,4.85,2.06,9.56,3.14,14.33.15.42.29.84.43,1.26l.45.79c.73-8.55,3.61-15.45,8.69-20.68q8.89-9.15,25.9-10.72l5-.52q6-.53,8.89-3.8c1.92-2.17,2.7-5.1,2.35-8.76q-.26-5.49-3-8.11a9.56,9.56,0,0,0-7.45-2.35Q680.1,74.85,668.85,83c-5.58,4-13.9,18.08-14,18.34" transform="translate(-37.71 -16.96)"/><path class="cls-2" d="M787.93,206.32q-20.92,0-36-8a56.27,56.27,0,0,1-23.28-22.75q-8.23-14.78-8.23-35.18,0-19.87,8.1-34.79a59.56,59.56,0,0,1,22.24-23.28Q764.91,74,783,74a61.92,61.92,0,0,1,23.8,4.32,49.18,49.18,0,0,1,17.92,12.55,54.37,54.37,0,0,1,11.25,20,86.22,86.22,0,0,1,3.79,26.42c0,3-.88,5.19-2.62,6.67s-4.36,2.22-7.84,2.22H741.37V130h80.56l-4.44,3.66q0-13.08-3.8-22.23a29.66,29.66,0,0,0-11.24-14Q795,92.55,784,92.54q-12.29,0-20.79,5.76a36.24,36.24,0,0,0-13,16q-4.44,10.2-4.44,23.8v1.57q0,23,10.85,34.66t31.52,11.64a71.38,71.38,0,0,0,16.61-2.09,54.76,54.76,0,0,0,16.61-7.06c3-1.75,5.62-2.53,8-2.36a9.09,9.09,0,0,1,5.75,2.36,9,9,0,0,1,2.75,5.23,10.6,10.6,0,0,1-1,6.41,15.18,15.18,0,0,1-5.49,5.88,65.42,65.42,0,0,1-20.66,9A91.66,91.66,0,0,1,787.93,206.32Z" transform="translate(-37.71 -16.96)"/><path class="cls-3" d="M280.3,193.94s17.35-7.89,7.26-42.28C287.56,151.66,335.83,193,280.3,193.94Z" transform="translate(-37.71 -16.96)"/><path class="cls-2" d="M311.85,201.83s52.38-14.2-12.62-58.05,6-82.35,62.79-48.28c0,0-98.44-9.46-22.4,55.53C339.62,151,410.92,201.83,311.85,201.83Z" transform="translate(-37.71 -16.96)"/><path class="cls-2" d="M106.45,205.74q-16.74,0-29.42-8t-19.75-23q-7.06-15-7.06-35.18,0-20.65,7.06-35.31A54.22,54.22,0,0,1,77,81.5q12.68-8.11,29.42-8.11t28.91,8.24a39.92,39.92,0,0,1,16.34,22.1h-2.87V30.49q0-6.52,3.4-9.94t9.68-3.4q6.27,0,9.8,3.4t3.53,9.94V191.88q0,6.27-3.4,9.8t-9.67,3.53q-6.28,0-9.68-3.53t-3.4-9.8v-23l2.88,5.75a41.19,41.19,0,0,1-16.35,22.63Q123.46,205.73,106.45,205.74Zm6.8-20.41a34,34,0,0,0,18.84-5.23q8.1-5.22,12.68-15.43t4.58-25.11q0-22.49-9.94-34T113.25,94.05a35.09,35.09,0,0,0-19.09,5.1q-8.11,5.1-12.69,15.3T76.9,139.56q0,22.24,9.94,34T113.25,185.33Z" transform="translate(-37.71 -16.96)"/><path class="cls-2" d="M225.46,47q-7.85,0-12.16-3.92t-4.32-11q0-7.32,4.32-11.12t12.16-3.79q7.84,0,12.16,3.79t4.32,11.12q0,7.07-4.32,11T225.46,47Zm0,157.72q-6.27,0-9.68-3.79t-3.4-10.6v-102c0-4.54,1.14-8,3.4-10.47s5.5-3.66,9.68-3.66,7.46,1.22,9.81,3.66,3.53,5.93,3.53,10.47v102q0,6.81-3.4,10.6T225.46,204.76Z" transform="translate(-37.71 -16.96)"/><path class="cls-3" d="M280.3,193.94s17.35-7.89,7.26-42.28C287.56,151.66,335.83,193,280.3,193.94Z" transform="translate(-37.71 -16.96)"/><path class="cls-2" d="M311.85,201.83s52.38-14.2-12.62-58.05,6-82.35,62.79-48.28c0,0-98.44-9.46-22.4,55.53C339.62,151,410.92,201.83,311.85,201.83Z" transform="translate(-37.71 -16.96)"/><path class="cls-2" d="M415.61,205q-6.27,0-9.67-3.53t-3.41-9.81V30.3q0-6.54,3.41-9.94t9.67-3.4q6.28,0,9.81,3.4T429,30.3v72.45h-3.66q5.74-14.64,18-22.1t28.25-7.45q15.17,0,25.24,5.62a34.77,34.77,0,0,1,15,17q5,11.39,5,28.64v67.22q0,6.28-3.4,9.81T503.76,205q-6.54,0-9.94-3.53t-3.4-9.81V126q0-16.47-6.41-24.06t-20-7.59q-16,0-25.5,9.94T429,131v60.68Q429,205,415.61,205Z" transform="translate(-37.71 -16.96)"/><path class="cls-1" d="M400.49,185.17a47.8,47.8,0,0,0-7.43-10.82,75.62,75.62,0,0,0-11.18-9.09,58.41,58.41,0,0,0-8.89-5,151.72,151.72,0,0,0-14.17-6.17,159.53,159.53,0,0,0-16-4.38Q336,148,329,147c-5.4-.82-10.84-1.47-16.29-1.87-4.23-.31-12.33.24-12.82.23h-.09l-20.56,1.71c-6.61.56-13.2,1.17-19.57,3.32-4.41,1.5-8.95,2.44-13.32,4.3a79.2,79.2,0,0,0-17.68,9.85,24.12,24.12,0,0,0-9.7,19.77c.14,7.54,4.17,14.44,9.67,19.3,6.31,5.57,13.69,9.38,21.34,12.68a157.06,157.06,0,0,0,16.19,6.3,149,149,0,0,0,17,3.86c6.34,1.16,12.73,2.25,19.15,2.8a202.54,202.54,0,0,0,39.62-.57c1.53-.17,3.09-.14,4.6-.42,3-.56,6-1.31,9-1.92,9.61-2,18.94-4.06,27.64-8.83,8.28-4.54,15.62-9.77,18.45-19.47A16.9,16.9,0,0,0,400.49,185.17Zm-5.3,11.91c-2.51,6-7.17,9.74-12.63,12.64a87.39,87.39,0,0,1-12.87,6c-5.54,1.87-11.33,3.05-17,4.38-10,2.32-20.2,2.55-30.35,2.85a188.46,188.46,0,0,1-22.78-.89c-5.4-.5-10.72-1.91-16.07-2.91-2.71-.5-5.43-.95-8.13-1.52a37.39,37.39,0,0,1-4.55-1.27c-6.11-2.12-12.24-4.2-18.28-6.49a57,57,0,0,1-7.91-3.82c-2.84-1.61-2.88-3.66-.29-5.85a63.06,63.06,0,0,1,17.09-10.44A77.41,77.41,0,0,1,283.23,184c8.67-.79,17.38-1.39,26.09-1.56a107.27,107.27,0,0,1,24.5,2.32A118.2,118.2,0,0,1,354,191a67.22,67.22,0,0,1,18.74,11.3c1.58,1.37,2.91,3,4.4,4.5a3.91,3.91,0,0,0,5.31.24,30.59,30.59,0,0,0,9.63-10.67c1.36-2.66,2.17-5.54,1.25-8.71-1.87-6.4-6-11.07-10.89-15.29-5.53-4.7-11.86-8-18.39-10.84a129.19,129.19,0,0,0-16.85-5.76c-6.46-1.81-13-3.23-19.6-4.6-3.14-.65-6.39-.76-9.57-1.22a34.83,34.83,0,0,1-3.88-1,.42.42,0,0,1-.3-.48.4.4,0,0,1,.39-.32,14.08,14.08,0,0,1,2.25,0c4.38.54,8.77,1,13.12,1.75,5.1.88,10.16,2,15.22,3.08a43.46,43.46,0,0,1,6.12,1.53c6.49,2.37,13.07,4.56,19.32,7.45a70.85,70.85,0,0,1,13.2,8c5.65,4.31,10.44,9.52,12.74,16.51C397.43,190.17,396.67,193.55,395.19,197.08Z" transform="translate(-37.71 -16.96)"/><path class="cls-1" d="M222.06,205.41a1,1,0,0,1,.21.14,141.7,141.7,0,0,0,16.15,10.88c3.51,2,7.12,3.84,10.78,5.56a96.28,96.28,0,0,0,10.25,4.26c5,1.65,10,3.15,15.13,4.37,5.86,1.4,11.78,2.56,17.72,3.55,3.18.53,6.46.36,9.67.73,12.53,1.41,25,.57,37.51-.46a119.79,119.79,0,0,0,28.16-5.73A105.23,105.23,0,0,0,381,223.24c2.14-1.06,4.24-2.18,6.29-3.41.43-.26,5.89-3.17,5.89-2a8.78,8.78,0,0,1-.39,2.74c-5.19,15.32-14.43,30-28.83,38.07-4.24,2.39-8.4,5-12.87,6.9-10.66,4.45-22,5.51-33.35,6.57-4.77.45-9.58.69-14.37.69a60.08,60.08,0,0,1-10.28-.92c-4.94-.86-9.84-2-14.73-3.17a50.88,50.88,0,0,1-7.64-2.26,133,133,0,0,1-13.52-6.16,66.08,66.08,0,0,1-18.86-15.61,68.77,68.77,0,0,1-4.8-6.36c-1.12-1.71-.57-2.45,1.49-2.73a22.44,22.44,0,0,0,4.71-.92c1.56-.56,2.42-1.88,1.49-3.52-1.74-3.09-3.35-6.35-5.63-9-2.53-3-7.1-.61-9.48-3a5,5,0,0,1-1-1.87l-2.43-6.56a14.35,14.35,0,0,1-1.16-4.61c0-.27.06-.62.32-.67A.36.36,0,0,1,222.06,205.41Z" transform="translate(-37.71 -16.96)"/><path class="cls-1" d="M134,265.75c-2.12-.54-4.43-.72-6.34-1.69-4.59-2.35-4.13-7.27-1.59-11.05a31.13,31.13,0,0,1,11.72-9.95,85.43,85.43,0,0,1,14.5-5.52,234.27,234.27,0,0,1,23.42-6.26c7.65-1.53,16.34-3.17,24.12-1.76a20.44,20.44,0,0,1,9.16,3.87c2.57,2,4.83,4.55,5.32,8a6.41,6.41,0,0,1-3.51,7,6.57,6.57,0,0,1-7.81-1.77c-1.69-1.88-3.91-2.2-6.14-2.15a46.87,46.87,0,0,0-16.8,3.34c-5.88,2.4-11.88,4.51-17.74,7-3.65,1.53-7,3.69-10.71,5.15C145.94,262.22,140.58,265.62,134,265.75Z" transform="translate(-37.71 -16.96)"/><path class="cls-1" d="M209.43,229c5.8-1.71,11.43-3.92,17.4-5a8,8,0,0,1,7.91,2.75,5.38,5.38,0,0,1,.52.66c.59,1.05,1.88,2.51,1.57,3.06-.54,1-2,1.48-3.21,1.9-4.45,1.57-9,2.7-13.48,4.17a5.5,5.5,0,0,1-2.91.34c-1.67-.38-2.22-2.65-3.4-3.78C212.39,231.69,210.53,230.73,209.43,229Z" transform="translate(-37.71 -16.96)"/></svg>