<svg id="Layer_1" data-name="Layer 1" xmlns="http://www.w3.org/2000/svg" viewBox="0 0 878.74 878.74"><defs><style>.cls-1{fill:#353535;}.cls-2{fill:#fbfbe3;}.cls-3{fill:#fefbea;}</style></defs><path class="cls-1" d="M198.57,480.1a35.55,35.55,0,0,1-19.35-5.25,34.75,34.75,0,0,1-13-15.13q-4.65-9.9-4.64-23.14,0-13.57,4.64-23.22a35.61,35.61,0,0,1,13-15,35.17,35.17,0,0,1,19.35-5.33,33.08,33.08,0,0,1,19,5.41A26.29,26.29,0,0,1,228.32,413h-1.89V364.86c0-2.87.74-5.05,2.24-6.54a8.59,8.59,0,0,1,6.36-2.23,8.92,8.92,0,0,1,6.45,2.23q2.33,2.24,2.32,6.54V471a9,9,0,0,1-2.23,6.45,9.89,9.89,0,0,1-12.73,0A8.93,8.93,0,0,1,226.6,471V455.85l1.89,3.78a27,27,0,0,1-10.75,14.88Q209.75,480.11,198.57,480.1ZM203,466.68a22.26,22.26,0,0,0,12.38-3.44,22.68,22.68,0,0,0,8.34-10.15q3-6.7,3-16.51,0-14.79-6.53-22.36T203,406.65A23,23,0,0,0,190.48,410a22.16,22.16,0,0,0-8.34,10.06q-3,6.71-3,16.51,0,14.63,6.54,22.36T203,466.68Z"/><path class="cls-1" d="M276.82,375.87q-5.16,0-8-2.58a9.25,9.25,0,0,1-2.84-7.23c0-3.21.94-5.64,2.84-7.31s4.55-2.49,8-2.49,6.11.83,8,2.49,2.84,4.1,2.84,7.31a9.28,9.28,0,0,1-2.84,7.23Q282,375.87,276.82,375.87Zm0,103.71a8.1,8.1,0,0,1-6.36-2.49,10.07,10.07,0,0,1-2.24-7V403q0-4.47,2.24-6.88a8.27,8.27,0,0,1,6.36-2.41,8.54,8.54,0,0,1,6.45,2.41q2.33,2.41,2.33,6.88v67.08a10.07,10.07,0,0,1-2.24,7Q281.13,479.58,276.82,479.58Z"/><path class="cls-1" d="M401.86,479.75a8.41,8.41,0,0,1-6.36-2.32,8.92,8.92,0,0,1-2.23-6.45V364.86q0-4.31,2.23-6.54a8.6,8.6,0,0,1,6.36-2.23,8.93,8.93,0,0,1,6.46,2.23c1.54,1.49,2.32,3.67,2.32,6.54V412.5h-2.41A28.61,28.61,0,0,1,420.1,398a35.08,35.08,0,0,1,18.57-4.9q10,0,16.6,3.69a22.9,22.9,0,0,1,9.89,11.18q3.27,7.49,3.27,18.84V471a8.93,8.93,0,0,1-2.24,6.45,8.41,8.41,0,0,1-6.36,2.32q-4.31,0-6.54-2.32a8.92,8.92,0,0,1-2.23-6.45V427.81q0-10.83-4.22-15.82t-13.15-5q-10.5,0-16.77,6.53t-6.28,17.55V471Q410.64,479.76,401.86,479.75Z"/><path class="cls-1" d="M519.17,480.1a35.11,35.11,0,0,1-15.74-3.44,27.55,27.55,0,0,1-10.92-9.29,23.07,23.07,0,0,1-4-13.24q0-9.3,4.73-14.71t15.65-7.74q10.92-2.32,29.5-2.32h8.09V440H538.6a125.28,125.28,0,0,0-19.6,1.21q-7.23,1.2-10.24,4a10.25,10.25,0,0,0-3,7.82,13.58,13.58,0,0,0,4.47,10.58q4.47,4.05,12.39,4a20.63,20.63,0,0,0,11.18-3,21.8,21.8,0,0,0,7.65-8.17,24.22,24.22,0,0,0,2.84-11.86V424.89q0-9.81-4.13-14.11t-13.59-4.3a50.35,50.35,0,0,0-11.43,1.38,53.92,53.92,0,0,0-12.3,4.64,7.53,7.53,0,0,1-5,.86,5.36,5.36,0,0,1-3.27-2.32,7.58,7.58,0,0,1-1.29-4,8.08,8.08,0,0,1,1-4.21,7,7,0,0,1,3.87-3.1,67.23,67.23,0,0,1,15-5.16,68.21,68.21,0,0,1,13.93-1.54q11.52,0,19,3.61a23.29,23.29,0,0,1,11.09,11q3.62,7.4,3.61,19.09V471a9.41,9.41,0,0,1-2.06,6.45,7.64,7.64,0,0,1-6,2.32,8,8,0,0,1-6-2.32,8.93,8.93,0,0,1-2.24-6.45V459.8H546a25.63,25.63,0,0,1-5.07,10.92,24.1,24.1,0,0,1-9.21,7A30.94,30.94,0,0,1,519.17,480.1Z"/><path d="M558.56,412.59c-.1.4-.18.79-.28,1.19s-.15.73-.25,1.1a5.71,5.71,0,0,1-.54,1.33,11.69,11.69,0,0,1,.65,2.44c.49,3.19,1.36,6.29,2.07,9.43.09.27.19.54.28.82l.29.52q.72-8.43,5.72-13.59,5.85-6,17-7.06l3.27-.34a8.43,8.43,0,0,0,5.84-2.49,7.32,7.32,0,0,0,1.55-5.77,7.55,7.55,0,0,0-2-5.33,6.3,6.3,0,0,0-4.9-1.55q-11.52.87-18.92,6.2c-3.67,2.64-9.14,11.89-9.21,12.05"/><path class="cls-1" d="M646.7,480.61q-13.77,0-23.65-5.25a36.91,36.91,0,0,1-15.31-15q-5.41-9.72-5.42-23.13,0-13.08,5.33-22.88a39.18,39.18,0,0,1,14.62-15.31,43.9,43.9,0,0,1,36.81-2.66,32.15,32.15,0,0,1,11.78,8.25,35.51,35.51,0,0,1,7.4,13.16,56.57,56.57,0,0,1,2.49,17.37,5.44,5.44,0,0,1-1.72,4.39,7.81,7.81,0,0,1-5.16,1.46H616.08V430.39h53l-2.93,2.4a38.29,38.29,0,0,0-2.49-14.62,19.49,19.49,0,0,0-7.4-9.2,21.8,21.8,0,0,0-12.12-3.18,22.7,22.7,0,0,0-22.19,14.28A38.88,38.88,0,0,0,619,435.72v1q0,15.13,7.13,22.79t20.73,7.65a46.89,46.89,0,0,0,10.92-1.37,35.93,35.93,0,0,0,10.92-4.65,9.22,9.22,0,0,1,5.25-1.54,5.81,5.81,0,0,1,5.59,5,7,7,0,0,1-.69,4.22,10,10,0,0,1-3.61,3.87,43,43,0,0,1-13.59,5.93A60.31,60.31,0,0,1,646.7,480.61Z"/><path class="cls-2" d="M206.79,480.08a35.54,35.54,0,0,1-19.35-5.24,34.76,34.76,0,0,1-13-15.14q-4.65-9.88-4.65-23.13,0-13.59,4.65-23.22a35.59,35.59,0,0,1,13-15,35.1,35.1,0,0,1,19.35-5.34,33.09,33.09,0,0,1,19,5.42A26.3,26.3,0,0,1,236.55,413h-1.89V364.85q0-4.31,2.23-6.54a8.61,8.61,0,0,1,6.37-2.24,8.93,8.93,0,0,1,6.45,2.24c1.54,1.49,2.32,3.67,2.32,6.54V471a8.93,8.93,0,0,1-2.24,6.45,9.89,9.89,0,0,1-12.73,0,8.92,8.92,0,0,1-2.23-6.45V455.83l1.89,3.79A27.05,27.05,0,0,1,226,474.49Q218,480.09,206.79,480.08Zm4.47-13.41a22.4,22.4,0,0,0,12.39-3.44A22.8,22.8,0,0,0,232,453.08q3-6.7,3-16.51,0-14.79-6.54-22.36t-17.2-7.57A23,23,0,0,0,198.71,410a22.09,22.09,0,0,0-8.34,10.06q-3,6.7-3,16.51,0,14.63,6.53,22.36T211.26,466.67Z"/><path class="cls-2" d="M285.05,375.85q-5.16,0-8-2.58a9.26,9.26,0,0,1-2.84-7.22q0-4.82,2.84-7.31t8-2.49q5.16,0,8,2.49t2.84,7.31a9.26,9.26,0,0,1-2.84,7.22Q290.22,375.85,285.05,375.85Zm0,103.72a8.06,8.06,0,0,1-6.36-2.5,10,10,0,0,1-2.24-7V403c0-3,.74-5.27,2.24-6.88a8.22,8.22,0,0,1,6.36-2.41,8.53,8.53,0,0,1,6.45,2.41q2.33,2.42,2.32,6.88v67.08a10.1,10.1,0,0,1-2.23,7Q289.34,479.58,285.05,479.57Z"/><path class="cls-2" d="M410.09,479.74a8.41,8.41,0,0,1-6.36-2.32,8.93,8.93,0,0,1-2.24-6.45V364.85q0-4.31,2.24-6.54a8.61,8.61,0,0,1,6.36-2.24,8.93,8.93,0,0,1,6.45,2.24q2.32,2.24,2.32,6.54v47.64h-2.41A28.62,28.62,0,0,1,428.32,398a35.1,35.1,0,0,1,18.58-4.91q10,0,16.6,3.7a22.85,22.85,0,0,1,9.89,11.18q3.25,7.49,3.27,18.84V471a8.93,8.93,0,0,1-2.24,6.45,8.41,8.41,0,0,1-6.36,2.32q-4.31,0-6.54-2.32a8.93,8.93,0,0,1-2.24-6.45V427.8q0-10.85-4.21-15.83t-13.16-5q-10.49,0-16.77,6.53t-6.28,17.55V471Q418.86,479.75,410.09,479.74Z"/><path class="cls-2" d="M527.39,480.08a35.09,35.09,0,0,1-15.73-3.43,27.66,27.66,0,0,1-10.93-9.29,23.16,23.16,0,0,1-4-13.25q0-9.28,4.73-14.7t15.65-7.74q10.92-2.32,29.5-2.32h8.08V440h-7.91a125.63,125.63,0,0,0-19.61,1.2c-4.81.81-8.23,2.15-10.23,4.05a10.22,10.22,0,0,0-3,7.82,13.58,13.58,0,0,0,4.47,10.58q4.47,4,12.38,4a20.63,20.63,0,0,0,11.18-3,21.83,21.83,0,0,0,7.66-8.17,24.23,24.23,0,0,0,2.84-11.87V424.87q0-9.8-4.13-14.1t-13.59-4.3a50.5,50.5,0,0,0-11.44,1.38,53.33,53.33,0,0,0-12.3,4.64,7.57,7.57,0,0,1-5,.86A5.36,5.36,0,0,1,502.8,411a7.43,7.43,0,0,1-1.29-4,8,8,0,0,1,1-4.21,6.89,6.89,0,0,1,3.87-3.1,66,66,0,0,1,15-5.16,68.35,68.35,0,0,1,13.94-1.55q11.52,0,19,3.62a23.21,23.21,0,0,1,11.1,11q3.6,7.4,3.61,19.1V471a9.36,9.36,0,0,1-2.07,6.45,7.61,7.61,0,0,1-6,2.32,8,8,0,0,1-6-2.32,8.92,8.92,0,0,1-2.23-6.45V459.79h1.55a25.63,25.63,0,0,1-5.08,10.92,24.17,24.17,0,0,1-9.2,7A31.16,31.16,0,0,1,527.39,480.08Z"/><path class="cls-2" d="M566.79,412.58c-.1.39-.19.79-.28,1.18s-.16.73-.25,1.1a5.61,5.61,0,0,1-.54,1.34,12.15,12.15,0,0,1,.64,2.44c.5,3.19,1.36,6.29,2.07,9.42.1.28.19.55.28.83s.19.32.3.52q.72-8.43,5.71-13.6,5.85-6,17-7.05l3.27-.34q4-.35,5.85-2.5a7.29,7.29,0,0,0,1.55-5.76,7.62,7.62,0,0,0-2-5.33,6.29,6.29,0,0,0-4.9-1.55q-11.53.86-18.92,6.19c-3.67,2.65-9.14,11.9-9.21,12.06"/><path class="cls-2" d="M654.92,480.6q-13.75,0-23.65-5.25a37.15,37.15,0,0,1-15.31-15q-5.41-9.72-5.41-23.14,0-13.06,5.33-22.87a39.11,39.11,0,0,1,14.62-15.31,43.86,43.86,0,0,1,36.81-2.67,32.34,32.34,0,0,1,11.78,8.26,35.65,35.65,0,0,1,7.4,13.16A56.57,56.57,0,0,1,689,435.19a5.44,5.44,0,0,1-1.72,4.38A7.79,7.79,0,0,1,682.1,441H624.31V430.37h53l-2.92,2.41a38.25,38.25,0,0,0-2.49-14.62,19.55,19.55,0,0,0-7.4-9.2,21.84,21.84,0,0,0-12.13-3.18,22.71,22.71,0,0,0-22.18,14.27,38.71,38.71,0,0,0-2.93,15.65v1q0,15.13,7.14,22.79t20.73,7.65A47.05,47.05,0,0,0,666,465.8a35.65,35.65,0,0,0,10.92-4.64,9.31,9.31,0,0,1,5.25-1.55,5.83,5.83,0,0,1,5.59,5,7,7,0,0,1-.69,4.21,9.88,9.88,0,0,1-3.61,3.87,43.06,43.06,0,0,1-13.59,5.94A60.8,60.8,0,0,1,654.92,480.6Z"/><path class="cls-1" d="M400.15,466.69a31.81,31.81,0,0,0-4.89-7.12,50,50,0,0,0-7.35-6,40,40,0,0,0-5.85-3.31,99.75,99.75,0,0,0-9.32-4,105.46,105.46,0,0,0-10.52-2.88c-3-.72-6.05-1.32-9.11-1.78-3.55-.53-7.13-1-10.71-1.23-2.78-.2-8.11.16-8.43.16h-.06c-4.44.37-9,.74-13.52,1.13a53.6,53.6,0,0,0-12.87,2.18c-2.9,1-5.89,1.6-8.76,2.83a52.25,52.25,0,0,0-11.63,6.47,15.85,15.85,0,0,0-6.37,13c.09,5,2.74,9.5,6.35,12.7a52,52,0,0,0,14,8.34,105.31,105.31,0,0,0,10.66,4.14A100.54,100.54,0,0,0,323,493.83c4.17.76,8.37,1.47,12.59,1.83a132.61,132.61,0,0,0,26.05-.37c1-.11,2-.09,3-.27,2-.38,3.94-.87,5.92-1.27,6.32-1.29,12.46-2.67,18.17-5.8,5.45-3,10.28-6.43,12.14-12.81A11.11,11.11,0,0,0,400.15,466.69Zm-3.49,7.83c-1.65,4-4.71,6.4-8.3,8.31a58,58,0,0,1-8.46,3.95c-3.65,1.23-7.46,2-11.22,2.88-6.56,1.53-13.28,1.68-19.95,1.88a124.91,124.91,0,0,1-15-.59c-3.55-.32-7.05-1.25-10.57-1.91-1.78-.33-3.57-.63-5.35-1a24.15,24.15,0,0,1-3-.84c-4-1.39-8-2.76-12-4.26a38.31,38.31,0,0,1-5.2-2.52c-1.87-1.05-1.89-2.4-.19-3.84a41.14,41.14,0,0,1,11.24-6.87A50.92,50.92,0,0,1,323,465.94c5.7-.52,11.43-.91,17.15-1a70.62,70.62,0,0,1,16.11,1.53,78.24,78.24,0,0,1,13.29,4.05,44.31,44.31,0,0,1,12.32,7.43c1,.9,1.91,2,2.9,3a2.58,2.58,0,0,0,3.49.16,20.19,20.19,0,0,0,6.33-7,7.57,7.57,0,0,0,.82-5.73c-1.23-4.21-3.91-7.28-7.16-10.05a47.63,47.63,0,0,0-12.09-7.13,84.26,84.26,0,0,0-11.09-3.79c-4.24-1.19-8.56-2.12-12.88-3-2.07-.43-4.2-.5-6.3-.81a23.08,23.08,0,0,1-2.55-.62.27.27,0,0,1-.19-.32.26.26,0,0,1,.26-.21,10.3,10.3,0,0,1,1.47,0c2.88.36,5.77.66,8.63,1.16,3.35.58,6.68,1.32,10,2a30.3,30.3,0,0,1,4,1c4.27,1.56,8.59,3,12.71,4.9a45.8,45.8,0,0,1,8.68,5.27c3.71,2.83,6.86,6.26,8.37,10.85C398.14,470,397.63,472.19,396.66,474.52Z"/><path class="cls-1" d="M282.81,480a.71.71,0,0,1,.14.1,92.59,92.59,0,0,0,10.62,7.15c2.31,1.32,4.69,2.53,7.09,3.66a63.81,63.81,0,0,0,6.74,2.8c3.28,1.09,6.6,2.07,10,2.87,3.85.92,7.75,1.69,11.65,2.34,2.09.35,4.25.24,6.36.48,8.24.93,16.45.37,24.66-.31a79.09,79.09,0,0,0,18.53-3.76,69.62,69.62,0,0,0,8.77-3.6c1.4-.69,2.79-1.43,4.13-2.24.29-.17,3.87-2.09,3.87-1.34a5.82,5.82,0,0,1-.25,1.81c-3.41,10.07-9.49,19.71-19,25a83,83,0,0,1-8.46,4.54c-7,2.92-14.45,3.62-21.93,4.32-3.14.29-6.3.45-9.45.45a40.26,40.26,0,0,1-6.76-.6c-3.25-.57-6.47-1.33-9.69-2.09a31.87,31.87,0,0,1-5-1.49,85.86,85.86,0,0,1-8.89-4.05,43.3,43.3,0,0,1-12.4-10.26,45.8,45.8,0,0,1-3.16-4.18c-.74-1.13-.38-1.61,1-1.8a15.31,15.31,0,0,0,3.1-.6,1.52,1.52,0,0,0,1-2.32,37.83,37.83,0,0,0-3.7-5.93c-1.67-1.94-4.67-.4-6.24-2a3.24,3.24,0,0,1-.67-1.22l-1.6-4.32a9.19,9.19,0,0,1-.76-3c0-.18,0-.41.21-.44A.29.29,0,0,1,282.81,480Z"/><path class="cls-1" d="M224.91,519.68a20.05,20.05,0,0,1-4.16-1.12c-3-1.54-2.72-4.78-1.06-7.26a20.65,20.65,0,0,1,7.71-6.55,57.5,57.5,0,0,1,9.54-3.63,153.86,153.86,0,0,1,15.4-4.11c5-1,10.75-2.09,15.86-1.16a13.33,13.33,0,0,1,6,2.55,8.25,8.25,0,0,1,3.5,5.27,4.22,4.22,0,0,1-2.31,4.62,4.3,4.3,0,0,1-5.13-1.17,4.88,4.88,0,0,0-4-1.41,30.8,30.8,0,0,0-11,2.19c-3.87,1.58-7.82,3-11.67,4.59-2.4,1-4.63,2.43-7.05,3.38C232.75,517.35,229.23,519.59,224.91,519.68Z"/><path class="cls-1" d="M274.51,495.51c3.81-1.13,7.52-2.58,11.44-3.3a5.23,5.23,0,0,1,5.2,1.81,2.79,2.79,0,0,1,.34.43c.39.69,1.24,1.65,1,2a3.9,3.9,0,0,1-2.1,1.24c-2.93,1-5.94,1.78-8.87,2.74a3.6,3.6,0,0,1-1.91.23c-1.1-.25-1.46-1.75-2.24-2.49C276.45,497.27,275.23,496.65,274.51,495.51Z"/><path class="cls-3" d="M321.11,472.46s11.41-5.19,4.77-27.81C325.88,444.65,357.63,471.83,321.11,472.46Z"/><path class="cls-2" d="M341.86,477.64s34.44-9.33-8.3-38.17,3.94-54.16,41.29-31.75c0,0-64.73-6.22-14.73,36.52C360.12,444.24,407,477.64,341.86,477.64Z"/></svg>